<svg xmlns="http://www.w3.org/2000/svg" viewBox="0 0 1200 675" role="img" aria-labelledby="t d">
<title id="t">Network delay components</title><desc id="d">A packet experiences processing, queueing, serialization, and propagation delay along a path.</desc>
<defs><marker id="a" markerWidth="10" markerHeight="10" refX="8" refY="3" orient="auto"><path d="M0 0L9 3 0 6Z" fill="#0a6074"/></marker></defs>
<g font-family="ui-monospace,monospace" text-anchor="middle">
  <path d="M115 345H1090" stroke="#0a6074" stroke-width="7" fill="none" marker-end="url(#a)"/>
  <g transform="translate(80 165)"><rect width="235" height="330" rx="26" fill="#f8fbfc" stroke="#d9e0e4"/><circle cx="118" cy="138" r="62" fill="#dceff4"/><rect x="79" y="109" width="78" height="54" rx="9" fill="#102a3a"/><path d="M100 124h36M100 138h50M100 152h30" stroke="#8cd7df" stroke-width="5" stroke-linecap="round"/><text x="118" y="260" font-size="27" font-weight="700" fill="#102a3a">t_proc</text></g>
  <g transform="translate(345 165)"><rect width="235" height="330" rx="26" fill="#f8fbfc" stroke="#d9e0e4"/><g fill="#3c8dde"><rect x="42" y="112" width="48" height="48" rx="10"/><rect x="98" y="112" width="48" height="48" rx="10"/><rect x="154" y="112" width="48" height="48" rx="10"/></g><rect x="42" y="190" width="160" height="30" rx="15" fill="#e2e9ed"/><rect x="42" y="190" width="104" height="30" rx="15" fill="#f0a23c"/><text x="118" y="260" font-size="27" font-weight="700" fill="#102a3a">t_queue</text></g>
  <g transform="translate(610 165)"><rect width="235" height="330" rx="26" fill="#f8fbfc" stroke="#d9e0e4"/><rect x="42" y="116" width="150" height="42" rx="10" fill="#dceff4"/><g fill="#3c8dde"><rect x="52" y="126" width="20" height="22" rx="4"/><rect x="78" y="126" width="20" height="22" rx="4"/><rect x="104" y="126" width="20" height="22" rx="4"/><rect x="130" y="126" width="20" height="22" rx="4"/></g><path d="M42 186h150" stroke="#0a6074" stroke-width="7"/><circle cx="42" cy="186" r="8" fill="#0a6074"/><text x="118" y="260" font-size="27" font-weight="700" fill="#102a3a">L / R</text></g>
  <g transform="translate(875 165)"><rect width="235" height="330" rx="26" fill="#f8fbfc" stroke="#d9e0e4"/><circle cx="54" cy="138" r="18" fill="#3c8dde"/><circle cx="180" cy="138" r="18" fill="#52b98b"/><path d="M78 138h78" stroke="#8eb7c3" stroke-width="6" stroke-dasharray="9 12"/><path d="M106 99c22 12 22 66 0 78M130 86c39 20 39 86 0 106" stroke="#79b8c8" stroke-width="5" fill="none"/><text x="118" y="260" font-size="27" font-weight="700" fill="#102a3a">d / s</text></g>
</g></svg>
